<svg xmlns="http://www.w3.org/2000/svg" xmlns:xlink="http://www.w3.org/1999/xlink" width="256" height="256" preserveAspectRatio="xMidYMid meet" viewBox="0 0 256 256" style="-ms-transform:rotate(360deg);-webkit-transform:rotate(360deg);transform:rotate(360deg)"><defs><linearGradient id="IconifyId-17538606b22-a94500-15615" x1="8.59%" x2="77.471%" y1="1.954%" y2="73.896%"><stop offset="0%" stop-color="#4CB36B"/><stop offset="100%" stop-color="#3EA16F"/></linearGradient><path id="IconifyId-17538606b22-a94500-15616" d="M256 128c0 70.692-57.308 128-128 128C57.308 256 0 198.692 0 128C0 57.308 57.308 0 128 0c70.692 0 128 57.308 128 128"/></defs><mask id="IconifyId-17538606b22-a94500-15617" fill="#fff"><use xlink:href="#IconifyId-17538606b22-a94500-15616"/></mask><use fill="#67BF79" xlink:href="#IconifyId-17538606b22-a94500-15616"/><path fill="#67BF79" d="M256 128c0 70.692-57.308 128-128 128C57.308 256 0 198.692 0 128C0 57.308 57.308 0 128 0c70.692 0 128 57.308 128 128" mask="url(#IconifyId-17538606b22-a94500-15617)"/><path fill="url(#IconifyId-17538606b22-a94500-15615)" d="M63.111 187.022L96.178 72l64.533 60.978L200 90.133l87.533 86.289l-110.844 124.889L63.111 187.022" mask="url(#IconifyId-17538606b22-a94500-15617)"/><path fill="#FFF" d="M77 189.6c-16.733 0-16.733 0-16.733-16.733V81c0-16.733 0-16.733 16.733-16.733h3.334c16.733 0 16.733 0 16.733 16.733v91.867c0 16.733 0 16.733-16.733 16.733H77z" mask="url(#IconifyId-17538606b22-a94500-15617)"/><path fill="#FFF" d="M121.041 189.6c-5.699 0-8.508-2.809-8.508-8.508V72.774c0-5.698 2.809-8.507 8.508-8.507h37.537c32.178 0 52.628 32.273 52.628 63.025c0 30.752-20.628 62.308-52.628 62.308h-37.537z" mask="url(#IconifyId-17538606b22-a94500-15617)"/><rect width="256" height="256" x="0" y="0" fill="rgba(0, 0, 0, 0)"/></svg>